# xmcd
#
# Track frame offsets: 
#        150
#        11527
#        23717
#        37358
#        49386
#        62224
#        72513
#        84332
#        97453
#        110169
#        121822
#        133531
#        145433
#        155746
#        169954
#        180386
#        191895
#        205642
#
# Disc length: 2905 seconds
#
# Revision: 0
# Processed by: cddbd v1.5.2PL0 Copyright (c) Steve Scherf et al.
# Submitted via: ExactAudioCopy v0.95b4
#
DISCID=150b5712
DTITLE=Ray Charles - Ray Charles
DYEAR=1900
DGENRE=R&B
TTITLE0=She's on the ball
TTITLE1=Money, Honey
TTITLE2=Baby, Let me hold your hand
TTITLE3=I Love You, I Love You
TTITLE4=Don't put all your dreams in one basket
TTITLE5=Ain't that fine
TTITLE6=If I give you my love
TTITLE7=Baby, won't you please come home
TTITLE8=Blues befoere Sunrise
TTITLE9=See See Rider
TTITLE10=How Long Blues
TTITLE11=Can't see you Darling
TTITLE12=Sitting on top of the world
TTITLE13=Someday
TTITLE14=Hey Now
TTITLE15=What have I done
TTITLE16=This love of mine
TTITLE17=Going Down Slow
EXTD=
EXTT0=
EXTT1=
EXTT2=
EXTT3=
EXTT4=
EXTT5=
EXTT6=
EXTT7=
EXTT8=
EXTT9=
EXTT10=
EXTT11=
EXTT12=
EXTT13=
EXTT14=
EXTT15=
EXTT16=
EXTT17=
PLAYORDER=
